<svg width="50" height="50" viewBox="0 0 50 50" fill="none" xmlns="http://www.w3.org/2000/svg">
<path d="M16.6365 24.2929C16.4491 24.4804 16.3437 24.7347 16.3437 24.9999C16.3437 25.2651 16.4491 25.5194 16.6365 25.7069L22.2935 31.3639C22.3858 31.4594 22.4961 31.5356 22.6181 31.588C22.7401 31.6404 22.8714 31.668 23.0041 31.6692C23.1369 31.6703 23.2686 31.645 23.3915 31.5947C23.5144 31.5444 23.626 31.4702 23.7199 31.3763C23.8138 31.2824 23.8881 31.1708 23.9384 31.0479C23.9886 30.925 24.0139 30.7933 24.0128 30.6605C24.0116 30.5277 23.984 30.3965 23.9316 30.2745C23.8792 30.1525 23.803 30.0421 23.7075 29.9499L19.7575 25.9999L33.0005 25.9999C33.2658 25.9999 33.5201 25.8945 33.7076 25.707C33.8952 25.5195 34.0005 25.2651 34.0005 24.9999C34.0005 24.7347 33.8952 24.4803 33.7076 24.2928C33.5201 24.1053 33.2658 23.9999 33.0005 23.9999L19.7575 23.9999L23.7075 20.0499C23.8897 19.8613 23.9905 19.6087 23.9882 19.3465C23.9859 19.0843 23.8808 18.8335 23.6954 18.6481C23.5099 18.4627 23.2591 18.3575 22.9969 18.3552C22.7347 18.3529 22.4821 18.4537 22.2935 18.6359L16.6365 24.2929Z" fill="#5D6679"/>
<circle cx="25" cy="25" r="24" stroke="#5D6679" stroke-width="2"/>
</svg>
