<svg width="12" height="12" viewBox="0 0 12 12" fill="none" xmlns="http://www.w3.org/2000/svg">
<path d="M6.71108 11.7102L11.7111 6.71019C11.8021 6.61508 11.8735 6.50294 11.9211 6.38019C12.0211 6.13672 12.0211 5.86365 11.9211 5.62019C11.8735 5.49743 11.8021 5.38529 11.7111 5.29019L6.71108 0.290185C6.61784 0.196947 6.50715 0.122986 6.38533 0.0725257C6.26351 0.0220654 6.13294 -0.00390651 6.00108 -0.00390651C5.73478 -0.00390652 5.47938 0.101881 5.29108 0.290185C5.10278 0.478489 4.99699 0.733884 4.99699 1.00019C4.99699 1.26649 5.10278 1.52188 5.29108 1.71019L8.59108 5.00019L1.00108 5.00019C0.735863 5.00018 0.481509 5.10554 0.293973 5.29308C0.106436 5.48061 0.00108026 5.73497 0.00108025 6.00018C0.00108024 6.2654 0.106436 6.51976 0.293973 6.70729C0.481509 6.89483 0.735863 7.00018 1.00108 7.00019L8.59108 7.00019L5.29108 10.2902C5.19735 10.3831 5.12296 10.4937 5.07219 10.6156C5.02142 10.7375 4.99528 10.8682 4.99528 11.0002C4.99528 11.1322 5.02142 11.2629 5.07219 11.3848C5.12296 11.5066 5.19735 11.6172 5.29108 11.7102C5.38404 11.8039 5.49464 11.8783 5.6165 11.9291C5.73836 11.9798 5.86907 12.006 6.00108 12.006C6.13309 12.006 6.2638 11.9798 6.38566 11.9291C6.50752 11.8783 6.61812 11.8039 6.71108 11.7102Z" fill="white"/>
</svg>
