<svg width="50" height="50" viewBox="0 0 50 50" fill="none" xmlns="http://www.w3.org/2000/svg">
<path d="M33.3635 24.2929C33.5509 24.4804 33.6563 24.7347 33.6563 24.9999C33.6563 25.2651 33.5509 25.5194 33.3635 25.7069L27.7065 31.3639C27.6142 31.4594 27.5039 31.5356 27.3819 31.588C27.2599 31.6404 27.1286 31.668 26.9959 31.6692C26.8631 31.6703 26.7314 31.645 26.6085 31.5947C26.4856 31.5444 26.374 31.4702 26.2801 31.3763C26.1862 31.2824 26.1119 31.1708 26.0616 31.0479C26.0114 30.925 25.9861 30.7933 25.9872 30.6605C25.9884 30.5277 26.016 30.3965 26.0684 30.2745C26.1208 30.1525 26.197 30.0421 26.2925 29.9499L30.2425 25.9999L16.9995 25.9999C16.7342 25.9999 16.4799 25.8945 16.2924 25.707C16.1048 25.5195 15.9995 25.2651 15.9995 24.9999C15.9995 24.7347 16.1048 24.4803 16.2924 24.2928C16.4799 24.1053 16.7342 23.9999 16.9995 23.9999L30.2425 23.9999L26.2925 20.0499C26.1103 19.8613 26.0095 19.6087 26.0118 19.3465C26.0141 19.0843 26.1192 18.8335 26.3046 18.6481C26.4901 18.4627 26.7409 18.3575 27.0031 18.3552C27.2653 18.3529 27.5179 18.4537 27.7065 18.6359L33.3635 24.2929Z" fill="#5D6679"/>
<circle cx="25" cy="25" r="24" transform="matrix(-1 0 0 1 50 0)" stroke="#5D6679" stroke-width="2"/>
</svg>
