<svg width="10" height="6" viewBox="0 0 10 6" fill="none" xmlns="http://www.w3.org/2000/svg">
<path fill-rule="evenodd" clip-rule="evenodd" d="M5.47221 5.47124C5.34719 5.59622 5.17766 5.66643 5.00088 5.66643C4.8241 5.66643 4.65456 5.59622 4.52955 5.47124L0.758213 1.6999C0.69454 1.63841 0.643751 1.56484 0.608812 1.48351C0.573873 1.40217 0.555482 1.31469 0.554713 1.22617C0.553943 1.13765 0.570811 1.04986 0.604332 0.967934C0.637853 0.886003 0.687355 0.811568 0.74995 0.748973C0.812545 0.686378 0.886979 0.636876 0.96891 0.603355C1.05084 0.569835 1.13863 0.552967 1.22715 0.553736C1.31567 0.554505 1.40315 0.572896 1.48448 0.607836C1.56582 0.642775 1.63938 0.693563 1.70088 0.757236L5.00088 4.05724L8.30088 0.757236C8.42662 0.635798 8.59502 0.568601 8.76981 0.57012C8.94461 0.571639 9.11182 0.641752 9.23543 0.765357C9.35903 0.888962 9.42914 1.05617 9.43066 1.23097C9.43218 1.40577 9.36499 1.57417 9.24355 1.6999L5.47221 5.47124Z" fill="white"/>
</svg>
