<svg width="20" height="20" viewBox="0 0 20 20" fill="none" xmlns="http://www.w3.org/2000/svg">
<path d="M10.7835 15.5809C10.8884 15.6854 10.9716 15.8096 11.0284 15.9463C11.0852 16.0831 11.1144 16.2297 11.1144 16.3777C11.1144 16.5258 11.0852 16.6724 11.0284 16.8092C10.9716 16.9459 10.8884 17.0701 10.7835 17.1746L10.2266 17.7315C9.17142 18.7867 7.74022 19.3795 6.2479 19.3795C4.75558 19.3795 3.32438 18.7867 2.26915 17.7315C1.21392 16.6762 0.621094 15.2451 0.621094 13.7527C0.621094 12.2604 1.21392 10.8292 2.26915 9.77398L4.5304 7.51367C5.54429 6.49727 6.90844 5.907 8.34342 5.86378C9.7784 5.82055 11.1756 6.32764 12.2488 7.28117C12.3596 7.37966 12.45 7.49901 12.5146 7.63241C12.5793 7.7658 12.6171 7.91063 12.6258 8.05863C12.6345 8.20662 12.614 8.35488 12.5654 8.49494C12.5168 8.635 12.4411 8.76412 12.3426 8.87492C12.2441 8.98572 12.1247 9.07604 11.9913 9.14072C11.8579 9.20539 11.7131 9.24316 11.5651 9.25187C11.4171 9.26057 11.2689 9.24005 11.1288 9.19145C10.9888 9.14286 10.8596 9.06716 10.7488 8.96867C10.1053 8.3971 9.26762 8.09303 8.40725 8.11864C7.54689 8.14426 6.72883 8.49763 6.1204 9.10648L3.86102 11.364C3.22798 11.997 2.87235 12.8556 2.87234 13.7509C2.87235 14.6461 3.22798 15.5047 3.86102 16.1377C4.49406 16.7708 5.35264 17.1264 6.2479 17.1264C7.14315 17.1264 8.00173 16.7708 8.63477 16.1377L9.19165 15.5809C9.29613 15.4763 9.4202 15.3933 9.55678 15.3367C9.69335 15.28 9.83974 15.2509 9.98758 15.2509C10.1354 15.2509 10.2818 15.28 10.4184 15.3367C10.555 15.3933 10.679 15.4763 10.7835 15.5809ZM17.7285 2.26836C16.6724 1.21475 15.2416 0.623047 13.7498 0.623047C12.258 0.623047 10.8271 1.21475 9.77102 2.26836L9.21415 2.82523C9.0028 3.03658 8.88407 3.32322 8.88407 3.62211C8.88407 3.92099 9.0028 4.20764 9.21415 4.41898C9.42549 4.63033 9.71214 4.74906 10.011 4.74906C10.3099 4.74906 10.5966 4.63033 10.8079 4.41898L11.3648 3.86211C11.9978 3.22907 12.8564 2.87343 13.7516 2.87343C14.6469 2.87343 15.5055 3.22907 16.1385 3.86211C16.7716 4.49514 17.1272 5.35373 17.1272 6.24898C17.1272 7.14423 16.7716 8.00282 16.1385 8.63586L13.8782 10.8971C13.2692 11.5057 12.4507 11.8586 11.5901 11.8835C10.7296 11.9084 9.89199 11.6035 9.24883 11.0312C9.13803 10.9327 9.00891 10.857 8.86885 10.8084C8.72879 10.7598 8.58054 10.7393 8.43254 10.748C8.28455 10.7567 8.13972 10.7944 8.00632 10.8591C7.87293 10.9238 7.75357 11.0141 7.65508 11.1249C7.55659 11.2357 7.48089 11.3648 7.4323 11.5049C7.38371 11.645 7.36318 11.7932 7.37188 11.9412C7.38059 12.0892 7.41836 12.234 7.48303 12.3674C7.54771 12.5008 7.63803 12.6202 7.74883 12.7187C8.82132 13.672 10.2176 14.1794 11.6519 14.137C13.0862 14.0947 14.4501 13.5058 15.4645 12.4909L17.7257 10.2305C18.7805 9.17471 19.3733 7.74344 19.3738 6.25097C19.3744 4.7585 18.7826 3.32681 17.7285 2.27023V2.26836Z" fill="#404040"/>
</svg>
